<?xml version="1.0" encoding="UTF-8"?>
<svg width="160px" height="160px" viewBox="0 0 160 160" version="1.1" xmlns="http://www.w3.org/2000/svg" xmlns:xlink="http://www.w3.org/1999/xlink">
    <title>Group 2</title>
    <g id="Page-1" stroke="none" stroke-width="1" fill="none" fill-rule="evenodd">
        <g id="Artboard" transform="translate(-320.000000, 0.000000)">
            <g id="Group-2" transform="translate(320.000000, 0.000000)">
                <rect id="Rectangle-Copy-6" stroke="#094866" stroke-width="20" fill="#094866" x="10" y="10" width="140" height="140"></rect>
                <g id="Group" transform="translate(12.000000, 49.000000)">
                    <rect id="Rectangle-Copy-7" fill="#FDF3E6" x="0" y="4.05333333" width="24.9692694" height="25.1690236" rx="2"></rect>
                    <rect id="Rectangle-Copy-8" fill="#FDF3E6" x="59.0413702" y="0" width="2.11640212" height="62.2933333" rx="1"></rect>
                    <rect id="Rectangle-Copy-9" fill="#FDF3E6" x="29.4586072" y="4.35501684" width="24.9692694" height="25.1690236" rx="2"></rect>
                    <rect id="Rectangle-Copy-10" fill="#FDF3E6" x="29.4586072" y="34.3509764" width="24.9692694" height="25.1690236" rx="2"></rect>
                    <path d="M17.3370108,24.32 L15.8978574,21.0061423 L8.85023831,21.0061423 L7.41108487,24.32 L4.08833355,24.32 L11.0089685,9.38666667 L13.6756351,9.38666667 L20.5962701,24.32 L17.3370108,24.32 Z M10.0142595,18.3466667 L15.0936246,18.3466667 L12.553942,12.8 L10.0142595,18.3466667 Z" id="A" fill="#053F5B" fill-rule="nonzero"></path>
                    <path d="M34.9878044,9.81333333 L40.9065561,9.81333333 C42.5853293,9.81333333 44.0273525,10.1069663 45.2326255,10.6942322 C46.4378986,11.2814981 47.359789,12.134432 47.9982968,13.2530337 C48.6368045,14.3716355 48.9560584,15.7069663 48.9560584,17.2590262 C48.9560584,18.8250687 48.6403917,20.1673908 48.0090581,21.2859925 C47.3777246,22.4045943 46.4594213,23.2610237 45.2541483,23.8552809 C44.0488752,24.4495381 42.5996778,24.7466667 40.9065561,24.7466667 L34.9878044,24.7466667 L34.9878044,9.81333333 Z M40.7014621,22.1866667 C43.9470307,22.1866667 45.569815,20.544 45.569815,17.2586667 C45.569815,14.0017778 43.9470307,12.3733333 40.7014621,12.3733333 L38.3740478,12.3733333 L38.3740478,22.1866667 L40.7014621,22.1866667 Z" id="D" fill="#053F5B" fill-rule="nonzero"></path>
                    <polygon id="V" fill="#053F5B" fill-rule="nonzero" points="46.8979155 39.350303 50.2059692 39.350303 43.4634393 54.4775758 40.8296386 54.4775758 34.0871087 39.350303 37.5005145 39.350303 42.1781446 50.3345727"></polygon>
                    <g id="Ahmet-Dinç-Vakfı-Copy" transform="translate(65.887275, 3.840000)" fill="#FDF3E6" fill-rule="nonzero">
                        <path d="M12.5692579,14.9333333 L11.2039072,11.7141573 L4.51770452,11.7141573 L3.15235382,14.9333333 L0,14.9333333 L6.56573057,0.426666667 L9.0956451,0.426666667 L15.6613757,14.9333333 L12.5692579,14.9333333 Z M5.56179623,9.28958801 L10.1798942,9.28958801 L7.8708452,3.84958801 L5.56179623,9.28958801 Z" id="A"></path>
                        <path d="M23.9587023,4.3826087 C26.3283858,4.3826087 27.5132275,5.82318841 27.5132275,8.70434783 L27.5132275,14.9333333 L24.5313758,14.9333333 L24.5313758,8.84637681 C24.5313758,8.1294686 24.4030179,7.60531401 24.1463022,7.27391304 C23.8895865,6.94251208 23.4847656,6.77681159 22.9318394,6.77681159 C22.273594,6.77681159 21.7469976,6.99323671 21.3520504,7.42608696 C20.9571031,7.8589372 20.7596295,8.44057971 20.7596295,9.17101449 L20.7596295,14.9333333 L17.7777778,14.9333333 L17.7777778,0 L20.7596295,0 L20.7596295,6.04637681 C21.115082,5.50531401 21.5692714,5.09275362 22.1221975,4.80869565 C22.6751237,4.52463768 23.2872919,4.3826087 23.9587023,4.3826087 Z" id="h"></path>
                        <path d="M43.9492063,4.26666667 C45.1153439,4.26666667 45.9832451,4.62564103 46.5529101,5.34358974 C47.122575,6.06153846 47.4074074,7.15897436 47.4074074,8.63589744 L47.4074074,14.9333333 L44.3714286,14.9333333 L44.3714286,8.73846154 C44.3714286,8.01367521 44.2574956,7.49059829 44.0296296,7.16923077 C43.8017637,6.84786325 43.426455,6.68717949 42.9037037,6.68717949 C42.2871252,6.68717949 41.8112875,6.90598291 41.4761905,7.34358974 C41.1410935,7.78119658 40.973545,8.3965812 40.973545,9.18974359 L40.973545,14.9333333 L37.9375661,14.9333333 L37.9375661,8.73846154 C37.9375661,8.02735043 37.8202822,7.50769231 37.5857143,7.17948718 C37.3511464,6.85128205 36.9791887,6.68717949 36.4698413,6.68717949 C35.8532628,6.68717949 35.3740741,6.90598291 35.0322751,7.34358974 C34.6904762,7.78119658 34.5195767,8.3965812 34.5195767,9.18974359 L34.5195767,14.9333333 L31.4835979,14.9333333 L31.4835979,7.50769231 C31.4835979,6.4 31.4299824,5.40854701 31.3227513,4.53333333 L34.1777778,4.53333333 L34.3587302,6.09230769 C34.6670194,5.5042735 35.0992945,5.05299145 35.6555556,4.73846154 C36.2118166,4.42393162 36.8518519,4.26666667 37.5756614,4.26666667 C39.0902998,4.26666667 40.0955908,4.90940171 40.5915344,6.19487179 C40.9266314,5.60683761 41.3924162,5.13846154 41.9888889,4.78974359 C42.5853616,4.44102564 43.2388007,4.26666667 43.9492063,4.26666667 Z" id="m"></path>
                        <path d="M60.5291005,9.9030303 L53.7548501,9.9030303 C53.8089359,10.8592593 54.0590829,11.556229 54.505291,11.9939394 C54.9514991,12.4316498 55.6140506,12.6505051 56.4929453,12.6505051 C57.0202822,12.6505051 57.547619,12.562963 58.0749559,12.3878788 C58.6022928,12.2127946 59.0890653,11.9569024 59.5352734,11.620202 L60.3465608,13.6808081 C59.8597884,14.0713805 59.2547031,14.3777778 58.5313051,14.6 C57.8079071,14.8222222 57.0811287,14.9333333 56.35097,14.9333333 C54.6202234,14.9333333 53.2613169,14.4585859 52.2742504,13.5090909 C51.287184,12.559596 50.7936508,11.2632997 50.7936508,9.62020202 C50.7936508,8.58316498 51.0066138,7.65723906 51.4325397,6.84242424 C51.8584656,6.02760943 52.4567901,5.39461279 53.2275132,4.94343434 C53.9982363,4.49225589 54.8703704,4.26666667 55.8439153,4.26666667 C57.2907113,4.26666667 58.4332745,4.73468013 59.2716049,5.67070707 C60.1099353,6.60673401 60.5291005,7.86936027 60.5291005,9.45858586 L60.5291005,9.9030303 Z M55.9250441,6.40808081 C55.3436214,6.40808081 54.8737507,6.57643098 54.5154321,6.91313131 C54.1571135,7.24983165 53.9238683,7.74141414 53.8156966,8.38787879 L57.8924162,8.38787879 C57.7301587,7.06801347 57.074368,6.40808081 55.9250441,6.40808081 Z" id="e"></path>
                        <path d="M67.2272881,6.8972572 L67.2272881,10.8353343 C67.2272881,11.395061 67.3758865,11.8048609 67.6730834,12.064734 C67.9702803,12.3246071 68.3552854,12.4545437 68.8280986,12.4545437 C69.1252955,12.4545437 69.4630193,12.4078998 69.8412698,12.314612 L69.8412698,14.65347 C69.3549477,14.8400456 68.7673083,14.9333333 68.0783519,14.9333333 C66.8085106,14.9333333 65.8392435,14.5801724 65.1705505,13.8738507 C64.5018575,13.1675289 64.167511,12.1746803 64.167511,10.895305 L64.167511,6.8972572 L62.2222222,6.8972572 L62.2222222,4.63836018 L64.167511,4.63836018 L64.167511,2.25952172 L67.2272881,1.28 L67.2272881,4.63836018 L69.8412698,4.63836018 L69.8412698,6.8972572 L67.2272881,6.8972572 Z" id="t"></path>
                        <path d="M1.26984127,20.48 L6.82988073,20.48 C8.4069101,20.48 9.7615379,20.7652434 10.8937641,21.3357303 C12.0259903,21.9062172 12.8920086,22.7347815 13.4918189,23.8214232 C14.0916292,24.9080649 14.3915344,26.2052434 14.3915344,27.7129588 C14.3915344,29.2342572 14.094999,30.5382272 13.5019281,31.6248689 C12.9088572,32.7115106 12.0462087,33.5434707 10.9139824,34.1207491 C9.78175622,34.6980275 8.42038899,34.9866667 6.82988073,34.9866667 L1.26984127,34.9866667 L1.26984127,20.48 Z M6.62769748,32.4194757 C9.70088292,32.4194757 11.2374756,30.8506367 11.2374756,27.7129588 C11.2374756,24.6024469 9.70088292,23.047191 6.62769748,23.047191 L4.42390002,23.047191 L4.42390002,32.4194757 L6.62769748,32.4194757 Z" id="D"></path>
                        <path d="M17.8829406,34.9866667 L17.8829406,24.8239821 L21.0588583,24.8239821 L21.0588583,34.9866667 L17.8829406,34.9866667 Z M17.7777778,20.0533333 L21.1640212,20.0533333 L21.1640212,22.8996868 L17.7777778,22.8996868 L17.7777778,20.0533333 Z" id="i"></path>
                        <path d="M31.482432,24.32 C33.9156607,24.32 35.1322751,25.7764103 35.1322751,28.6892308 L35.1322751,34.9866667 L32.0704623,34.9866667 L32.0704623,28.8328205 C32.0704623,28.1080342 31.9386624,27.5781197 31.6750626,27.2430769 C31.4114628,26.9080342 30.9957862,26.7405128 30.4280328,26.7405128 C29.7521359,26.7405128 29.2114184,26.9593162 28.8058803,27.3969231 C28.4003422,27.8345299 28.1975731,28.4225641 28.1975731,29.1610256 L28.1975731,34.9866667 L25.1357602,34.9866667 L25.1357602,27.5610256 C25.1357602,26.4533333 25.0816885,25.4618803 24.973545,24.5866667 L27.8528657,24.5866667 L28.0556348,26.2276923 C28.4206191,25.6123077 28.8971264,25.1405128 29.4851567,24.8123077 C30.073187,24.4841026 30.7389454,24.32 31.482432,24.32 Z" id="n"></path>
                        <path d="M47.4074074,33.7220955 C47.0042832,34.0718158 46.4902998,34.3542822 45.8654573,34.5694947 C45.2406148,34.7847072 44.5788192,34.9124896 43.8800705,34.9528419 L43.7792895,35.6388317 C43.8464769,35.6253809 43.9338204,35.6186555 44.0413202,35.6186555 C44.5519442,35.6186555 44.9651466,35.746438 45.2809272,36.0020028 C45.5967078,36.2575676 45.7545981,36.6005625 45.7545981,37.0309875 C45.7545981,37.5690187 45.5127236,38.0028064 45.0289746,38.3323505 C44.5452255,38.6618946 43.8666331,38.8266667 42.9931973,38.8266667 C42.6975729,38.8266667 42.3784329,38.7964024 42.0357773,38.7358739 C41.6931217,38.6753454 41.3807004,38.5845526 41.0985135,38.4634956 L41.340388,37.2731015 C41.9585118,37.4614125 42.489292,37.5555679 42.9327286,37.5555679 C43.5508524,37.5555679 43.8599143,37.3807078 43.8599143,37.0309875 C43.8599143,36.9099305 43.8028051,36.8124123 43.6885865,36.738433 C43.574368,36.6644537 43.409759,36.6274641 43.1947594,36.6274641 C43.0200722,36.6274641 42.7781977,36.6745418 42.4691358,36.7686973 L42.0660116,36.3449977 L42.2474175,34.8721372 C40.9439825,34.6569247 39.9260939,34.0953547 39.1937516,33.187427 C38.4614093,32.2794993 38.0952381,31.1193695 38.0952381,29.7070376 C38.0952381,28.6444259 38.3236751,27.706234 38.7805493,26.8924618 C39.2374234,26.0786895 39.8790627,25.4465029 40.7054674,24.9959017 C41.531872,24.5453006 42.489292,24.32 43.5777274,24.32 C44.3167884,24.32 45.0356933,24.4343316 45.7344419,24.6629949 C46.4331906,24.8916582 46.9908457,25.2010261 47.4074074,25.5910987 L46.601159,27.7095967 C46.1980348,27.3867779 45.7545981,27.1345758 45.2708491,26.9529903 C44.7871,26.7714047 44.3167884,26.680612 43.8599143,26.680612 C43.026791,26.680612 42.3784329,26.9328141 41.91484,27.4372184 C41.4512472,27.9416226 41.2194507,28.6780529 41.2194507,29.646509 C41.2194507,30.628416 41.4478878,31.3715716 41.9047619,31.8759759 C42.361636,32.3803802 43.0133535,32.6325823 43.8599143,32.6325823 C44.3167884,32.6325823 44.7871,32.5417895 45.2708491,32.360204 C45.7545981,32.1786185 46.1980348,31.9264163 46.601159,31.6035976 L47.4074074,33.7220955 Z" id="ç"></path>
                        <polygon id="V" points="12.1107999 40.5333333 15.2380952 40.5333333 8.86399004 55.04 6.3741052 55.04 0 40.5333333 3.22689076 40.5333333 7.64892624 51.0669663"></polygon>
                        <path d="M26.2433862,45.0626263 L26.2433862,55.3050505 L23.2851882,55.3050505 L23.2851882,53.789899 C22.9807651,54.3151515 22.5506021,54.7259259 21.9946991,55.0222222 C21.4387961,55.3185185 20.8100963,55.4666667 20.1085996,55.4666667 C19.2350378,55.4666667 18.4640533,55.2511785 17.7956461,54.820202 C17.1272389,54.3892256 16.6044254,53.773064 16.2272055,52.9717172 C15.8499856,52.1703704 15.6613757,51.2444444 15.6613757,50.1939394 C15.6613757,49.1434343 15.8499856,48.2074074 16.2272055,47.3858586 C16.6044254,46.5643098 17.1305479,45.9279461 17.8055729,45.4767677 C18.480598,45.0255892 19.2482736,44.8 20.1085996,44.8 C20.8100963,44.8 21.4387961,44.9548822 21.9946991,45.2646465 C22.5506021,45.5744108 22.9807651,45.9919192 23.2851882,46.5171717 L23.2851882,45.0626263 L26.2433862,45.0626263 Z M20.9821615,53.1434343 C21.7233655,53.1434343 22.2925042,52.8875421 22.6895778,52.3757576 C23.0866514,51.8639731 23.2851882,51.1232323 23.2851882,50.1535354 C23.2851882,49.1838384 23.0866514,48.4397306 22.6895778,47.9212121 C22.2925042,47.4026936 21.7233655,47.1434343 20.9821615,47.1434343 C20.2409575,47.1434343 19.6652008,47.4127946 19.2548915,47.9515152 C18.8445821,48.4902357 18.6394274,49.2377104 18.6394274,50.1939394 C18.6394274,51.1501684 18.8412732,51.8808081 19.2449646,52.3858586 C19.6486561,52.8909091 20.2277217,53.1434343 20.9821615,53.1434343 Z" id="a"></path>
                        <polygon id="k" points="41.0582011 55.04 37.3990011 55.04 33.4628888 50.4342029 33.4628888 55.04 30.4761905 55.04 30.4761905 40.1066667 33.4628888 40.1066667 33.4628888 49.1762319 37.220986 44.7733333 40.8010681 44.7733333 36.5484844 49.7037681"></polygon>
                        <path d="M48.5202253,42.605632 C48.042328,42.605632 47.6600102,42.7366262 47.3732719,42.9986145 C47.0865335,43.2606028 46.9431644,43.6804558 46.9431644,44.2581736 L46.9431644,44.8224561 L49.1141833,44.8224561 L49.1141833,47.0997391 L46.9431644,47.0997391 L46.9431644,55.04 L43.8504864,55.04 L43.8504864,47.0997391 L41.9047619,47.0997391 L41.9047619,44.8224561 L43.8504864,44.8224561 L43.8504864,44.1775619 C43.8504864,42.8877733 44.1850145,41.8868436 44.8540707,41.1747728 C45.5231268,40.4627021 46.4925755,40.1066667 47.7624168,40.1066667 C48.4724356,40.1066667 49.0595665,40.1939961 49.5238095,40.368655 L49.5238095,42.7467027 C49.1278375,42.6526556 48.7933094,42.605632 48.5202253,42.605632 Z" id="f"></path>
                        <polygon id="ı" points="52.0634921 55.04 52.0634921 44.8 55.026455 44.8 55.026455 55.04"></polygon>
                    </g>
                </g>
            </g>
        </g>
    </g>
</svg>